<?xml version="1.0" encoding="UTF-8"?>
<svg xmlns="http://www.w3.org/2000/svg" version="1.1" viewBox="0 0 76.7 79.7">
  <defs>
    <style>
      .cls-1 {
        fill: #040404;
        stroke: red;
        stroke-miterlimit: 10;
      }

      .cls-2 {
        fill: #fff;
      }
    </style>
  </defs>
  <!-- Generator: Adobe Illustrator 28.7.4, SVG Export Plug-In . SVG Version: 1.2.0 Build 166)  -->
  <g>
    <g id="Layer_2">
      <g id="Layer_1-2">
        <g>
          <path class="cls-2" d="M21.4,167.4c-5.9,0-11.8-4.3-11.8-12.6s0-2.6.8-6.9c.4-2.8.5-4.4.5-5.3v-72.4c-4.2-1.8-7-5.9-7-11s2.8-9.2,7-11v-6.1c0-10.9,3.4-20.2,10.2-27.6,7-7.6,16.3-11.7,27.1-11.7s12.3,2,17.4,6c7.3,5.7,8.9,12.2,8.9,16.6s-1.7,9.6-5,12.9c-3.4,3.4-7.8,5.2-12.8,5.2s-8.7-1.6-11.9-4.6c-1.1-1-2.1-2.2-2.8-3.4v11.8c6.3.4,11,5.4,11,11.9s-4.7,11.5-11,11.9v23.7c0,4.1.7,5.8.8,6.2h.2c0,.1.8,1.1.8,1.1l3.5,4.4v3.6c0,1.7-.6,9.6-10.7,10.9-.4.4-.9.9-1.6,1.7-.9,1.1-1.5,1.8-1.9,2.3v27.4c.1,14.3-9.8,15-11.8,15h0Z"/>
          <path class="cls-1" d="M66.2,25.4c0,2.9-.9,5.3-2.6,7.1-1.8,1.8-4.1,2.7-6.9,2.7s-4.5-.8-6.3-2.4c-1.8-1.7-2.7-3.8-2.7-6.2s.9-7.1,6.2-8.9c-1.8-.8-4.1-1.1-6.8-1.1-4.3,0-7.5,1.4-9.8,4.4-2.4,3.1-3.7,7.5-3.7,13.3v21.2h7.4c2.1,0,3.6,1.5,3.6,3.7s-1.4,3.7-3.6,3.7h-7.4v32c0,6.2,1.2,10.3,3.6,12.3l.3.3,1.5,1.9v.7c0,2.8-3.6,2.8-5.3,2.8s-1.3.2-4.9,4.4c-3.7,4.3-3.9,5.8-3.9,6v29.2c.1,1.7.1,6.7-3.5,6.7s-3.6-.2-3.6-4.4,0-1.8.7-5.6c.4-2.7.6-4.9.6-6.6V62.9h-3.4c-2.1,0-3.6-1.5-3.6-3.7s1.4-3.7,3.6-3.7h3.4v-13.4c0-8.8,2.7-16.2,8.1-22.1,5.4-6,12.5-9,21-9s8.7,1.4,12.3,4.3c3.8,3,5.7,6.4,5.7,10.1Z"/>
        </g>
      </g>
    </g>
  </g>
</svg>