<?xml version="1.0" encoding="UTF-8"?>
<svg id="Layer_2" xmlns="http://www.w3.org/2000/svg" viewBox="0 0 34.21 79.73">
  <defs>
    <style>
      .cls-1 {
        fill: #040404;
        stroke: red;
        stroke-miterlimit: 10;
      }

      .cls-2 {
        fill: #fff;
      }
    </style>
  </defs>
  <g id="Layer_1-2" data-name="Layer_1">
    <g>
      <path class="cls-2" d="M8.51,79.73c-2.84,0-5.72-2.1-5.72-6.12,0-.51.04-1.26.37-3.34.21-1.36.25-2.15.25-2.57v-35.06c-2.05-.87-3.41-2.87-3.41-5.32s1.36-4.45,3.41-5.32v-2.95c0-5.26,1.66-9.76,4.94-13.39C11.73,1.96,16.26,0,21.47,0c3.13,0,5.97.98,8.44,2.92,3.55,2.78,4.3,5.91,4.3,8.04,0,2.47-.84,4.64-2.42,6.26-1.64,1.66-3.78,2.52-6.21,2.52-2.2,0-4.2-.78-5.77-2.25-.54-.5-1-1.06-1.37-1.66v5.73c3.07.19,5.34,2.61,5.34,5.77s-2.27,5.57-5.34,5.77v11.49c0,2,.32,2.8.41,2.99l.08.07.41.44,1.7,2.12v1.76c0,.82-.27,4.66-5.17,5.27-.19.19-.44.45-.76.82-.45.52-.73.89-.9,1.13v10.9l.06,2.39c0,6.91-4.81,7.26-5.77,7.26Z"/>
      <path class="cls-1" d="M30.21,10.96c0,1.42-.43,2.59-1.28,3.46-.87.88-1.99,1.32-3.35,1.32-1.18,0-2.2-.39-3.03-1.17-.86-.8-1.29-1.82-1.29-3.02,0-1.31.43-3.42,3-4.32-.87-.37-1.97-.55-3.27-.55-2.07,0-3.63.69-4.77,2.12-1.18,1.48-1.78,3.65-1.78,6.45v10.29h3.6c1.04,0,1.74.72,1.74,1.78s-.7,1.78-1.74,1.78h-3.6v15.48c0,3,.59,5.01,1.74,5.97l.14.15.73.91v.35c0,1.35-1.73,1.35-2.57,1.35-.01,0-.63.1-2.38,2.11-1.79,2.07-1.88,2.79-1.88,2.91v11.8l.06,2.34c0,.82,0,3.26-1.77,3.26-.29,0-1.72-.1-1.72-2.12,0-.28.03-.86.32-2.73.2-1.3.3-2.37.3-3.18V29.1h-1.67c-1.04,0-1.74-.72-1.74-1.78s.7-1.78,1.74-1.78h1.67v-6.49c0-4.24,1.32-7.84,3.91-10.7,2.63-2.89,6.04-4.35,10.15-4.35,2.2,0,4.21.69,5.97,2.07,1.84,1.44,2.77,3.08,2.77,4.89Z"/>
    </g>
  </g>
</svg>