<?xml version="1.0" encoding="UTF-8"?>
<svg id="Layer_1" data-name="Layer 1" xmlns="http://www.w3.org/2000/svg" viewBox="0 0 304.86 96.78">
  <defs>
    <style>
      .cls-1 {
        fill: #fff;
      }

      .cls-2 {
        fill: red;
        stroke: red;
      }

      .cls-2, .cls-3 {
        stroke-width: 2px;
      }

      .cls-2, .cls-3, .cls-4 {
        stroke-miterlimit: 10;
      }

      .cls-3 {
        fill: #040404;
      }

      .cls-3, .cls-4 {
        stroke: #040404;
      }

      .cls-4 {
        fill: none;
      }
    </style>
  </defs>
  <g>
    <path class="cls-1" d="M302.21,32.9l-2.13-.91-3.79,.34,2.01-3.19-1.63-.85-1.8-.62-.59-1.6,.21-2.43-1.22-1.13-2.51,.27h-1.89s-1.11-.86-1.11-.86l1.38-2.14,.41-1.94-1.58-1.96,3.33-1.95-4.31-.71,1.79-2.38,.27-2.32-2.69-.1v-2.81s-2.34,.25-2.34,.25l-1.05-2.47-2.77,4.58-1.26-3.54-1.51,1.82-2.4-2.51-1.96,.5-1.09,1.91,.54,3.3-.09,1.92-5-2.09,2.47,3.86-3.4-.29-2.42,.76,3.95,3.52-5.15,.05,1.96,2.29-.21,1.65,.58,1.06-1.04-.99-.56-1.76-3.28,.95-.94-1.4,.03-2.36-1.46,.88-2.08,.43-1.77,.68-1.67,.75,3.09,4.63-4.71-1.71,1.02,2.96-2.58-.11,1.77,3.86-1.48,.96-4.2-2.45-.03,2.61-2.2,.06-.1,2.26-1.83,.87-.72-2.03,1.85-1.26-.62-1.84,1.99-.34,1.07-1.31,2.6-.68-1.99-2.66,2.27-1.18-2.7-2.07,3.49-1.52,1.05-1.94-2.46-1.43-2.66-.84,1.89-2.55-.69-1.64-2.13-.53-1.19-1.1-.14-2.43-.95-1.83-2.7,1.21-1.69-.16-.53-4.03-2.42,2.63-1.43-2.54-1.84,1.05-1.63,.97-1.92-1.83-1.93-.44-1.6,1.07-1.51,1.07-.56,2.88-1.38,.75-2.54-.94,1.22,4.35-3.75-2.03,1.8,4.15-1.46,.64-2.6-.05-2.14,.59,.67,2.4-1.91,.9-2.45,.88,3.99,3.26-2.22,1.01-1.26,1.44,.36,1.78-3.3,1.37,4.69,2.04-.03,1.6-3.98,1.32,2.8,1.33-1.3-.38-2.34-.43,.69-2.45,1.57-3.04-2.69-.2-2.9-.05-.25-1.83-2.37-.42,1.02-2.2-.87,.19,1.02-2.31-4.62,.59-.96-1.24,4.5-3.98-6.01,1.28,2.3-2.88-3.02-.58-1.83,.72,2.59,3.96-4.04-.9,.9,2.73-2.57,.18-1.05,1.29,.91,2.73-.7,1.56-.98,1.35-1.75-1.04-1.75-.37-1.58,.48-1.46,.77-.66,2.09-1.7,3.66v-3.53s-1.99-.34-1.99-.34l1.46-2.1,1.33-1.22-2.7-2.45,4.23-.77-1.69-1.79-.96-1.62-.18-1.63,.68-2.1-2.52-.57-.58-1.55-.97-1.36-.93-1.35-2.51,1.22,.34-4.29-1.37-1.9-1.96-.24-1.95,3.14-1.67-.32-1.61,.43-2.44-1.44-.1,3.58h-1.97s-1.44,.95-1.44,.95l.39,2.37-2.32,.33-3.45,.38,1.3,2.44,.81,1.89-.36,1.62-1.92,2.02,1.08,1.8-.94,2.52,5.09-.59-2.62,4.1,3.38-.5-.11,.18,.21,2.35-3.33-1.87-.16,3.04-.1-3.69-1.1,.62-3.56-.38,1.49-2.46-.82-1.49-1.79-.45-.37-2.6-1.93-.14-1.36-2.74-2.14,.42-1.86-.23-1.86,3.8-1.86,.23-.28-.68,.47,1.79-4.69-.71,.06,1.34,2.36-.05-1.54-.9-.93-1.32,.7-2.4-2.85-.03,1.34-2.83-2.58-.21-1.84-.71,.79-2.47-1.16-1.17-5.61-.48,4.19,4.21-5.08-.58,.08,2.09-.18,1.96,.11,2.11-2.18,.33-1.3-.41-1.46,.69-1.24-2.24-1.87-.99-1.88-.04-1.88,.3,.65,3.12-1.77,.86-1.32,1-1.21-.84-1.69-.3-1.3-.97-1.16-2.95-2.01,.97-1.67,3.71-1.67,.32-1.67-5.94-1.53,3.15,.85,3.35-4-.46,1.13-1.99-2,2.76-1.59-5.22-1.59,2.31-1.59-2.22-.95,2.76,.27-1.75,3.13-.53-2.08-2.21h-3.28s3.49-4.09,3.49-4.09l-2.41-.52-4.07,.48,2.82-3.69-2.78-.31-.24-3.52-1.67,4.32-1.67,.79-1.67-1.04-2.17-3.4-2.27,.15-.53,3.53-1.66,.7-1.24,1.36-2.2,.06,.16,2.84-1.43,.72-.2,1.96-3.72-1.21,.18,2.22,.22,1.95-1.69,1.79-1.15-4.34-2.41,3.94-1.25-.95-1.49-3.52-.95,1.27-3.24-.31,.78-1.21,3.5-1.92,.73-2.16-2.18-1.35-1.07-1.52,.5-2.53-3.79,.66-.86-1.46,.93-3.91-2.62,.32-1.98-.24-2.2,.66-1.7-.07-1.63,.02-1.14-4.59-1.98,3.03-1.84-2.56-1.87-.11-1.04,4.05-1.78-.46-1.5,.69-2.68-1.82-.37,3.04-2.16-.23-2.29-.03,1.63,4.41-2.07,.19-2.46,.07,1.7,3.23h-2.93s-1.69,1.02-1.69,1.02l-2.63,.8,3.73,3.19,.1,1.63-5.02,.61,4.12,2.34-4.35,1.3,4.82,1.8-.89,1.27-3.83-.44-1.67,1.37-.06,2.19,1.87,2.28-2.01,1.59-.04,1.81,2.14,1.23,.21,1.61,1.18,1.12,.1,2.04-1.88,.6,4.35,1.68-.33,1.68-1.57,1.68,2.56,1.68,.29,1.68-2.98,1.68-1.94,1.68,3.81,1.68,.67,1.68,.05,1.68-4.45,1.68,.66,1.68,2.99,1.68,1.19,1.68-5.87,1.69,2.38,1.68,.7,1.69,2.4,1.69-5.08,1.69,3.71,2.01-3.03,1.68,3.61,2.22-.87,1.52,.62,1.39-1.94,2.53,1.37,1.34,1.11,1.42,1.36,1.19,.98,1.99,2.75-1.96,.88,4.07,2.11-3.39,1.92,2.44,1.06-2.82,1.99,.58,2.93,1.15,.95-2.05-.46-2.75-1.23-2.44,3.76-.11-1.37-2.08,3.2-1.27,.45-1.85-3.37-.11-.22-2.36,.62-1.45,.98-1.24,1.97-.85,1.08,.73-.22,5.08,2.71-4.21,1.34,2.17,1.42-1.81,1.42,3.04,1.42-.83-1.15-2.55,3.01,1.04,3.51-1.56-1.36,3.04h3.19s-.66,2.57-.66,2.57h3.21s.59,1.74,.59,1.74l-.41,1.35,3.14,.36-.88-2.61,2.12-.4,.29-1.75-1.43-3.02,2.8,.1-.12-2.06-.38-2.25,1.18,2.73,2.59-.74,2.78-.56,.67,1.56,1.68,.55-1.21,1.66,1.85-1.4,1.85,1.66,1.44-.95,2.45,2.8,1.2-1.94-.72-3.97,1.63-.21,2.58,.99,2.97-1.49-1.2,3.83,1.59,.56,1.99-.97,1.23,1.34,1.55-1.44,1.42-1,1.42-.2,1.42,.55-.22,.82,1.07-.53,4.84-.96-3.41,4.41,3.81-.41-.72,2.62,.77,1.62,2.89,.21,1.7,1.08-1.7-3.42,4.56,1.2-.45-2.5-1.13-3,3.95,.75,2.55-.29-1.23-1.17,.03,.15-.23,2.21,5.08-1.32-2.28,3.58,4.62-1.01-.23,2.22-.62,2.48,3.72,1.04,1.67-.72-3.14-4.31,4.68,1.52,.94-1.27-1.33-2.96,1.83-.61,2.41-.18-2.44-3.79,1.11-1.24,1.95-.55,.65-1.64,2.83-2.37,.5,3.77,1.42,.94-2.11,3.22,1.02,1.66,3.65-1.83,1.04,.95,1.48-.05,.63,4.79,1.99,.63,1.6-1.7,1.6-4.05,1.6,3.76,1.61,.56,1.61,.39,.56-2.84,.31-1.81,3.02-1.53-2.48-2.12,.37-.96,.86-1.78,2.92,1.42-.13-3.11,3.15,1.35,1.1-1.42-.89-3.16,.81-1.22,3.13,2.08,.55-1.34-.4,1.56,1.52,.67,.3,1.12-4.29,1.42,5.34,1.42-3.89,1.42,2.42-.16,.87,1.72,2.58-.4,.81,1.8,2.17,.11,.03,2.79-.89,3.94,1.85,.52,1.84-2.85,2.9,.73,2.49,.28-1.21-3.73,2.52,1.1,1.36-3.8,1.51,.51,2.21,4.73-.11-2.32,2.22-1.12,1.69,3.7,1.56-1.4,1.56,2.22,1.56-5.25-1.13,.37,.63-1.46,1.3-1,3.34,.41,.64,1.15,1.07-1.24-.6-4.55,3.28,2.34-.29-4.15,2.98,1.89,2.29,.45,1.58-.82-.11-3.24,1.15,.95,2.39-.31,.51,2.14,2.74-.08,2.39,1.59-1.23,1.12-1.49,3.54,2.66-1.67-.16,3.01,.47-.96,1.93,.3,.97-1.66,2.41-.26,.02,3.27,2.43-.74,.88,1.82-.03,3.35,3.03-1.74,2.05-.1,2.21,2.77,.71-1.45-.2-2.15,2.83,.19-1.41-3.1,.51-1.61,.83-1.57,2.85,1.45,1.73-.54-.42-4.36,2.24,1.37-.25,1.42,.87,1.68,3.22,.19-1.34,2.93,1.06,1.58,3.2-1.87-.02,4.03,2.14-1.02,1.69,.11,1.52,2.23,1.53-3.16,1.53,3.66-.69-3.91-.22-1.43,4.67,1.68,.34,1.85,3.02,.51-2.02,3.04,3.31,.37,1.15,2.19-1.74-3.78,2.02-.35,.85-1.41,.25-1.97,2.43,.03,.87-1.4,1.49-.84,3.2,.71-.14-4.03,2.42,.37,.67,1.31-.24,3.79,2.49-1.78,1.1,3.03,1.9-2.95,1.61-1.76,1.61-.46,1.61,4.33,2.82-.64-3.4-4.21,1.25-1.19,1.29-1.17,.53-1.5,1.31,.25,2.1,1.4-.98-4.51,4.34,3.07,.5-2.24-1.08-3.76,3.35,1.09,.72-1.68,1.15-1.26,2.44-.37-1.02-2.74,1.12-1.29,.33-1.7,3.4-.47,1.31-1.52,.31-1.86-4.47-2.69-.16-1.59,5.24-1.25-.17-1.84-1.54-1.7,1.06-1.85-4.39-.97,1.29-1.9,2.73-2.57-1.59-1.34,.5-2.14Z"/>
    <path class="cls-4" d="M302.21,32.9l-2.13-.91-3.79,.34,2.01-3.19-1.63-.85-1.8-.62-.59-1.6,.21-2.43-1.22-1.13-2.51,.27h-1.89s-1.11-.86-1.11-.86l1.38-2.14,.41-1.94-1.58-1.96,3.33-1.95-4.31-.71,1.79-2.38,.27-2.32-2.69-.1v-2.81s-2.34,.25-2.34,.25l-1.05-2.47-2.77,4.58-1.26-3.54-1.51,1.82-2.4-2.51-1.96,.5-1.09,1.91,.54,3.3-.09,1.92-5-2.09,2.47,3.86-3.4-.29-2.42,.76,3.95,3.52-5.15,.05,1.96,2.29-.21,1.65,.58,1.06-1.04-.99-.56-1.76-3.28,.95-.94-1.4,.03-2.36-1.46,.88-2.08,.43-1.77,.68-1.67,.75,3.09,4.63-4.71-1.71,1.02,2.96-2.58-.11,1.77,3.86-1.48,.96-4.2-2.45-.03,2.61-2.2,.06-.1,2.26-1.83,.87-.72-2.03,1.85-1.26-.62-1.84,1.99-.34,1.07-1.31,2.6-.68-1.99-2.66,2.27-1.18-2.7-2.07,3.49-1.52,1.05-1.94-2.46-1.43-2.66-.84,1.89-2.55-.69-1.64-2.13-.53-1.19-1.1-.14-2.43-.95-1.83-2.7,1.21-1.69-.16-.53-4.03-2.42,2.63-1.43-2.54-1.84,1.05-1.63,.97-1.92-1.83-1.93-.44-1.6,1.07-1.51,1.07-.56,2.88-1.38,.75-2.54-.94,1.22,4.35-3.75-2.03,1.8,4.15-1.46,.64-2.6-.05-2.14,.59,.67,2.4-1.91,.9-2.45,.88,3.99,3.26-2.22,1.01-1.26,1.44,.36,1.78-3.3,1.37,4.69,2.04-.03,1.6-3.98,1.32,2.8,1.33-1.3-.38-2.34-.43,.69-2.45,1.57-3.04-2.69-.2-2.9-.05-.25-1.83-2.37-.42,1.02-2.2-.87,.19,1.02-2.31-4.62,.59-.96-1.24,4.5-3.98-6.01,1.28,2.3-2.88-3.02-.58-1.83,.72,2.59,3.96-4.04-.9,.9,2.73-2.57,.18-1.05,1.29,.91,2.73-.7,1.56-.98,1.35-1.75-1.04-1.75-.37-1.58,.48-1.46,.77-.66,2.09-1.7,3.66v-3.53s-1.99-.34-1.99-.34l1.46-2.1,1.33-1.22-2.7-2.45,4.23-.77-1.69-1.79-.96-1.62-.18-1.63,.68-2.1-2.52-.57-.58-1.55-.97-1.36-.93-1.35-2.51,1.22,.34-4.29-1.37-1.9-1.96-.24-1.95,3.14-1.67-.32-1.61,.43-2.44-1.44-.1,3.58h-1.97s-1.44,.95-1.44,.95l.39,2.37-2.32,.33-3.45,.38,1.3,2.44,.81,1.89-.36,1.62-1.92,2.02,1.08,1.8-.94,2.52,5.09-.59-2.62,4.1,3.38-.5-.11,.18,.21,2.35-3.33-1.87-.16,3.04-.1-3.69-1.1,.62-3.56-.38,1.49-2.46-.82-1.49-1.79-.45-.37-2.6-1.93-.14-1.36-2.74-2.14,.42-1.86-.23-1.86,3.8-1.86,.23-.28-.68,.47,1.79-4.69-.71,.06,1.34,2.36-.05-1.54-.9-.93-1.32,.7-2.4-2.85-.03,1.34-2.83-2.58-.21-1.84-.71,.79-2.47-1.16-1.17-5.61-.48,4.19,4.21-5.08-.58,.08,2.09-.18,1.96,.11,2.11-2.18,.33-1.3-.41-1.46,.69-1.24-2.24-1.87-.99-1.88-.04-1.88,.3,.65,3.12-1.77,.86-1.32,1-1.21-.84-1.69-.3-1.3-.97-1.16-2.95-2.01,.97-1.67,3.71-1.67,.32-1.67-5.94-1.53,3.15,.85,3.35-4-.46,1.13-1.99-2,2.76-1.59-5.22-1.59,2.31-1.59-2.22-.95,2.76,.27-1.75,3.13-.53-2.08-2.21h-3.28s3.49-4.09,3.49-4.09l-2.41-.52-4.07,.48,2.82-3.69-2.78-.31-.24-3.52-1.67,4.32-1.67,.79-1.67-1.04-2.17-3.4-2.27,.15-.53,3.53-1.66,.7-1.24,1.36-2.2,.06,.16,2.84-1.43,.72-.2,1.96-3.72-1.21,.18,2.22,.22,1.95-1.69,1.79-1.15-4.34-2.41,3.94-1.25-.95-1.49-3.52-.95,1.27-3.24-.31,.78-1.21,3.5-1.92,.73-2.16-2.18-1.35-1.07-1.52,.5-2.53-3.79,.66-.86-1.46,.93-3.91-2.62,.32-1.98-.24-2.2,.66-1.7-.07-1.63,.02-1.14-4.59-1.98,3.03-1.84-2.56-1.87-.11-1.04,4.05-1.78-.46-1.5,.69-2.68-1.82-.37,3.04-2.16-.23-2.29-.03,1.63,4.41-2.07,.19-2.46,.07,1.7,3.23h-2.93s-1.69,1.02-1.69,1.02l-2.63,.8,3.73,3.19,.1,1.63-5.02,.61,4.12,2.34-4.35,1.3,4.82,1.8-.89,1.27-3.83-.44-1.67,1.37-.06,2.19,1.87,2.28-2.01,1.59-.04,1.81,2.14,1.23,.21,1.61,1.18,1.12,.1,2.04-1.88,.6,4.35,1.68-.33,1.68-1.57,1.68,2.56,1.68,.29,1.68-2.98,1.68-1.94,1.68,3.81,1.68,.67,1.68,.05,1.68-4.45,1.68,.66,1.68,2.99,1.68,1.19,1.68-5.87,1.69,2.38,1.68,.7,1.69,2.4,1.69-5.08,1.69,3.71,2.01-3.03,1.68,3.61,2.22-.87,1.52,.62,1.39-1.94,2.53,1.37,1.34,1.11,1.42,1.36,1.19,.98,1.99,2.75-1.96,.88,4.07,2.11-3.39,1.92,2.44,1.06-2.82,1.99,.58,2.93,1.15,.95-2.05-.46-2.75-1.23-2.44,3.76-.11-1.37-2.08,3.2-1.27,.45-1.85-3.37-.11-.22-2.36,.62-1.45,.98-1.24,1.97-.85,1.08,.73-.22,5.08,2.71-4.21,1.34,2.17,1.42-1.81,1.42,3.04,1.42-.83-1.15-2.55,3.01,1.04,3.51-1.56-1.36,3.04h3.19s-.66,2.57-.66,2.57h3.21s.59,1.74,.59,1.74l-.41,1.35,3.14,.36-.88-2.61,2.12-.4,.29-1.75-1.43-3.02,2.8,.1-.12-2.06-.38-2.25,1.18,2.73,2.59-.74,2.78-.56,.67,1.56,1.68,.55-1.21,1.66,1.85-1.4,1.85,1.66,1.44-.95,2.45,2.8,1.2-1.94-.72-3.97,1.63-.21,2.58,.99,2.97-1.49-1.2,3.83,1.59,.56,1.99-.97,1.23,1.34,1.55-1.44,1.42-1,1.42-.2,1.42,.55-.22,.82,1.07-.53,4.84-.96-3.41,4.41,3.81-.41-.72,2.62,.77,1.62,2.89,.21,1.7,1.08-1.7-3.42,4.56,1.2-.45-2.5-1.13-3,3.95,.75,2.55-.29-1.23-1.17,.03,.15-.23,2.21,5.08-1.32-2.28,3.58,4.62-1.01-.23,2.22-.62,2.48,3.72,1.04,1.67-.72-3.14-4.31,4.68,1.52,.94-1.27-1.33-2.96,1.83-.61,2.41-.18-2.44-3.79,1.11-1.24,1.95-.55,.65-1.64,2.83-2.37,.5,3.77,1.42,.94-2.11,3.22,1.02,1.66,3.65-1.83,1.04,.95,1.48-.05,.63,4.79,1.99,.63,1.6-1.7,1.6-4.05,1.6,3.76,1.61,.56,1.61,.39,.56-2.84,.31-1.81,3.02-1.53-2.48-2.12,.37-.96,.86-1.78,2.92,1.42-.13-3.11,3.15,1.35,1.1-1.42-.89-3.16,.81-1.22,3.13,2.08,.55-1.34-.4,1.56,1.52,.67,.3,1.12-4.29,1.42,5.34,1.42-3.89,1.42,2.42-.16,.87,1.72,2.58-.4,.81,1.8,2.17,.11,.03,2.79-.89,3.94,1.85,.52,1.84-2.85,2.9,.73,2.49,.28-1.21-3.73,2.52,1.1,1.36-3.8,1.51,.51,2.21,4.73-.11-2.32,2.22-1.12,1.69,3.7,1.56-1.4,1.56,2.22,1.56-5.25-1.13,.37,.63-1.46,1.3-1,3.34,.41,.64,1.15,1.07-1.24-.6-4.55,3.28,2.34-.29-4.15,2.98,1.89,2.29,.45,1.58-.82-.11-3.24,1.15,.95,2.39-.31,.51,2.14,2.74-.08,2.39,1.59-1.23,1.12-1.49,3.54,2.66-1.67-.16,3.01,.47-.96,1.93,.3,.97-1.66,2.41-.26,.02,3.27,2.43-.74,.88,1.82-.03,3.35,3.03-1.74,2.05-.1,2.21,2.77,.71-1.45-.2-2.15,2.83,.19-1.41-3.1,.51-1.61,.83-1.57,2.85,1.45,1.73-.54-.42-4.36,2.24,1.37-.25,1.42,.87,1.68,3.22,.19-1.34,2.93,1.06,1.58,3.2-1.87-.02,4.03,2.14-1.02,1.69,.11,1.52,2.23,1.53-3.16,1.53,3.66-.69-3.91-.22-1.43,4.67,1.68,.34,1.85,3.02,.51-2.02,3.04,3.31,.37,1.15,2.19-1.74-3.78,2.02-.35,.85-1.41,.25-1.97,2.43,.03,.87-1.4,1.49-.84,3.2,.71-.14-4.03,2.42,.37,.67,1.31-.24,3.79,2.49-1.78,1.1,3.03,1.9-2.95,1.61-1.76,1.61-.46,1.61,4.33,2.82-.64-3.4-4.21,1.25-1.19,1.29-1.17,.53-1.5,1.31,.25,2.1,1.4-.98-4.51,4.34,3.07,.5-2.24-1.08-3.76,3.35,1.09,.72-1.68,1.15-1.26,2.44-.37-1.02-2.74,1.12-1.29,.33-1.7,3.4-.47,1.31-1.52,.31-1.86-4.47-2.69-.16-1.59,5.24-1.25-.17-1.84-1.54-1.7,1.06-1.85-4.39-.97,1.29-1.9,2.73-2.57-1.59-1.34,.5-2.14Z"/>
  </g>
  <path class="cls-3" d="M14.65,34.93v-7.49c0-4,1.22-7.35,3.65-10.03,2.44-2.68,5.57-4.02,9.41-4.02,1.98,0,3.77,.62,5.35,1.86,1.59,1.24,2.38,2.61,2.38,4.1,0,1.16-.33,2.08-1,2.76-.67,.68-1.55,1.02-2.63,1.02-.92,0-1.7-.3-2.35-.91-.65-.61-.97-1.37-.97-2.29,0-2.17,1.26-3.4,3.77-3.7l.58-.12c0-.31-.53-.73-1.59-1.26-1.06-.53-2.4-.79-4.02-.79-2.37,0-4.22,.83-5.55,2.5s-2,4.02-2,7.07v11.3h4.59c.5,0,.75,.26,.75,.78s-.25,.78-.75,.78h-4.59v16.48c0,3.33,.7,5.58,2.1,6.74l.51,.64c0,.23-.52,.35-1.57,.35-.67,0-1.71,.82-3.13,2.45-1.42,1.64-2.13,2.83-2.13,3.57v11.8l.06,2.36c0,1.49-.26,2.24-.77,2.24-.48,0-.72-.37-.72-1.12,0-.37,.1-1.23,.31-2.58,.21-1.35,.31-2.46,.31-3.33V36.48h-2.67c-.5,0-.75-.26-.75-.78s.25-.78,.75-.78h2.67Z"/>
  <path class="cls-3" d="M44.21,55.04v-11.87c0-.37-.39-.93-1.18-1.67-.79-.74-1.37-1.11-1.74-1.11-.41,0-1.14,.54-2.17,1.61l-.25-.25c0-.83,1.88-2.57,5.63-5.22,1.29-.91,2.5-2.3,3.63-4.16,.25,0,.37,.12,.37,.37,0,.29-.6,1.3-1.8,3.04,0,.33,.57,1,1.72,2.02,1.15,1.02,2.05,1.52,2.71,1.52l1.78-.62,.25,.25c-2.82,1.62-4.22,2.68-4.22,3.18v15.19c0,.75,.43,1.49,1.3,2.21,.87,.73,1.53,1.09,1.99,1.09,.5,0,1.39-.7,2.67-2.11l.25,.37c0,.33-1.07,1.56-3.2,3.69s-3.9,4.15-5.31,6.05l-.25-.37c0-.3,.23-.71,.68-1.24,.46-.53,.68-.99,.68-1.37l-.75-.93c-1.86-1.74-2.79-3.42-2.79-5.03v-3.42c-1.52,2.5-3.3,4.55-5.34,6.15-2.04,1.6-4.05,3.63-6.02,6.08-.29,0-.44-.12-.44-.37,0-.21,.25-.63,.75-1.24,.5-.62,.75-1.07,.75-1.37,0-.83-.78-1.73-2.35-2.7-1.57-.97-2.66-1.46-3.29-1.46-.38,0-.92,.21-1.63,.62l-.31-.25c0-.33,.42-.7,1.26-1.12,2.02-.99,3.02-2.44,3.02-4.35v-13.72c0-.66-.32-1.37-.97-2.11-.65-.75-1.15-1.12-1.51-1.12-.68,0-1.83,.93-3.48,2.79l-.25-.37c0-.75,1.31-2.28,3.94-4.6,2.63-2.31,4.11-3.47,4.44-3.47l.25,.37-.99,1.37,.5,.37c1.86,1.04,2.79,2.35,2.79,3.92v17.24c0,.75,.41,1.57,1.24,2.46,.83,.89,1.63,1.34,2.42,1.34,.99,0,2.73-1.9,5.22-5.71Z"/>
  <path class="cls-3" d="M73.2,60.26l.25,.25c-2.63,2.03-4.81,3.93-6.56,5.71-1.75,1.78-2.73,2.67-2.94,2.67l-.25-.25c.95-1.11,1.43-1.83,1.43-2.17,0-.7-.61-1.7-1.82-2.98-1.21-1.28-2.99-1.92-5.33-1.92-.29,0-1.03,.41-2.22,1.24-.33,0-.5-.14-.5-.43,0-.21,1.12-1,3.37-2.36,2.24-1.36,4.03-2.05,5.36-2.05,1.04,0,3.18,1.24,6.42,3.73,.33,0,.81-.24,1.43-.71,.62-.48,1.08-.71,1.37-.71Zm-12.67-25.33c0-3.39,.3-5.86,.91-7.39,.6-1.53,2.03-3.12,4.28-4.78,2.25-1.66,3.5-2.48,3.75-2.48l.25,.41-.12,.27c-1.45,1.32-2.44,2.56-2.98,3.71-.54,1.15-.81,3.22-.81,6.18v4.08h3.66c.54,0,.81,.26,.81,.78s-.27,.78-.81,.78h-3.66v10.33c0,5.4-2.81,9.9-8.44,13.51-.33,.21-.69,.42-1.06,.62l-.19-.31,.06-.43c.16-.08,.62-.35,1.37-.81,.75-.46,1.43-1.35,2.05-2.68,.62-1.33,.93-3.86,.93-7.6v-12.64h-2.79c-.5,0-.75-.26-.75-.78s.25-.78,.75-.78h2.79Z"/>
  <path class="cls-3" d="M92.02,55.04v-11.87c0-.37-.39-.93-1.18-1.67-.79-.74-1.37-1.11-1.74-1.11-.41,0-1.14,.54-2.17,1.61l-.25-.25c0-.83,1.88-2.57,5.63-5.22,1.29-.91,2.5-2.3,3.63-4.16,.25,0,.37,.12,.37,.37,0,.29-.6,1.3-1.8,3.04,0,.33,.57,1,1.72,2.02,1.15,1.02,2.05,1.52,2.71,1.52l1.78-.62,.25,.25c-2.82,1.62-4.22,2.68-4.22,3.18v15.19c0,.75,.43,1.49,1.3,2.21,.87,.73,1.53,1.09,1.99,1.09,.5,0,1.39-.7,2.67-2.11l.25,.37c0,.33-1.07,1.56-3.2,3.69s-3.9,4.15-5.31,6.05l-.25-.37c0-.3,.23-.71,.68-1.24,.46-.53,.68-.99,.68-1.37l-.75-.93c-1.86-1.74-2.79-3.42-2.79-5.03v-3.42c-1.52,2.5-3.3,4.55-5.34,6.15-2.04,1.6-4.05,3.63-6.02,6.08-.29,0-.44-.12-.44-.37,0-.21,.25-.63,.75-1.24,.5-.62,.75-1.07,.75-1.37,0-.83-.78-1.73-2.35-2.7-1.57-.97-2.66-1.46-3.29-1.46-.38,0-.92,.21-1.63,.62l-.31-.25c0-.33,.42-.7,1.26-1.12,2.02-.99,3.02-2.44,3.02-4.35v-13.72c0-.66-.32-1.37-.97-2.11-.65-.75-1.15-1.12-1.51-1.12-.68,0-1.83,.93-3.48,2.79l-.25-.37c0-.75,1.31-2.28,3.94-4.6,2.63-2.31,4.11-3.47,4.44-3.47l.25,.37-.99,1.37,.5,.37c1.86,1.04,2.79,2.35,2.79,3.92v17.24c0,.75,.41,1.57,1.24,2.46,.83,.89,1.63,1.34,2.42,1.34,.99,0,2.73-1.9,5.22-5.71Z"/>
  <path class="cls-3" d="M113.75,42.25c1.85-2.12,3.63-3.87,5.33-5.25,1.71-1.37,3.01-2.94,3.92-4.69l.25,.37-.93,2.11c0,.25,.39,.62,1.16,1.12,.77,.5,1.46,.75,2.04,.75,.55,0,1.11-.29,1.7-.87,.25,0,.37,.12,.37,.37-.83,1.17-1.56,2.23-2.2,3.17-.64,.94-1.3,1.61-1.99,2.01-.68,.4-1.36,.6-2.02,.6-.83,0-2.11-.79-3.85-2.36-.21,0-.7,.4-1.49,1.19-.79,.8-1.55,1.83-2.3,3.09v13.6c0,.75,.5,1.51,1.49,2.3,.99,.79,1.72,1.18,2.17,1.18,.29,0,1.14-.56,2.55-1.68l.25,.37c0,.21-.95,1-2.86,2.36-1.9,1.36-3.25,2.42-4.04,3.18-.79,.75-1.82,1.99-3.1,3.71l-.25-.37c0-.21,.27-.69,.81-1.43,.54-.74,.81-1.26,.81-1.55s-.47-.99-1.4-2.11c-.93-1.12-1.81-1.68-2.64-1.68-.37,0-1.06,.25-2.05,.75l-.44-.25c0-.21,.66-.63,1.99-1.28,1.32-.64,1.99-1.67,1.99-3.08v-14.38c0-.91-.4-1.78-1.21-2.61-.81-.83-1.42-1.25-1.83-1.25-.66,0-1.76,1.12-3.29,3.35-.25,0-.37-.19-.37-.56,0-.94,1.69-2.7,5.06-5.28,1.69-1.27,3.02-2.95,4.01-5.03,.29,0,.43,.12,.43,.37,0,.29-.54,1.3-1.61,3.04,2.36,2.11,3.54,3.77,3.54,4.97v1.74Z"/>
  <path class="cls-3" d="M139.21,34.68l.99,.68c2.98,1.7,4.47,3.66,4.47,5.9,0,1.2-.38,2.45-1.14,3.76-.76,1.3-2.22,2.84-4.38,4.59-2.16,1.76-3.65,3.22-4.47,4.38l-.25-.25c0-.7,.71-1.72,2.12-3.06,1.41-1.34,2.33-2.52,2.76-3.56,.43-1.03,.65-2.04,.65-3.03,0-1.28-.47-2.38-1.42-3.31-.94-.93-1.6-1.39-1.97-1.39-.94,0-1.84,.87-2.68,2.6-.84,1.73-1.26,4.38-1.26,7.92s.91,6.07,2.72,7.8c1.82,1.73,3.81,2.6,5.97,2.6,.54,0,1.43-.72,2.67-2.17,.29,0,.43,.21,.43,.62,0,.86-2.14,2.62-6.42,5.28-2.14,1.27-3.48,2.27-4.01,3.01-.54,.74-.84,1.49-.93,2.27-.41,0-.62-.12-.62-.37,0-1.1,.81-2.4,2.42-3.91l-.81-.68c-4.02-2.61-6.02-6.58-6.02-11.92,0-4.93,2.68-10.04,8.03-15.34,1.65-1.57,2.88-3.21,3.71-4.91,.29,0,.43,.17,.43,.5-.66,1.11-.99,1.77-.99,1.99Z"/>
  <path class="cls-2" d="M167.46,56.74c0,.99,.35,1.94,1.06,2.84,.7,.91,1.45,1.36,2.24,1.36,.95,0,1.84-.39,2.67-1.18l.25,.37c0,.29-.85,1.08-2.55,2.36-1.7,1.28-3.93,3.2-6.71,5.77l-.31-.25c0-.34,.26-.72,.78-1.15,.52-.43,.78-.87,.78-1.34l-.75-.99c-1.45-1.57-2.17-3.1-2.17-4.59v-17.39c0-.62-.4-1.22-1.21-1.8-.81-.58-1.38-.87-1.71-.87-.29,0-.97,.37-2.05,1.12l-.25-.56c4.41-3.41,7.29-5.94,8.64-7.58l.37-.37c.33,0,.5,.12,.5,.37,0,.29-.77,1.3-2.3,3.04,0,.46,.54,1.08,1.63,1.85,1.09,.77,2.3,1.39,3.64,1.85-1.7,.74-2.55,1.59-2.55,2.54v14.59Zm-3.82-40.01c.82,0,1.58,.32,2.27,.96,.7,.64,1.05,1.38,1.05,2.2s-.31,1.56-.92,2.2c-.62,.64-1.33,.96-2.15,.96s-1.57-.32-2.25-.96c-.68-.64-1.01-1.38-1.01-2.2s.31-1.56,.92-2.2c.61-.64,1.31-.96,2.09-.96Z"/>
  <path class="cls-2" d="M184.23,37.66c-3.23,2.38-4.84,4.94-4.84,7.69,0,3.53,1.29,5.29,3.86,5.29,.91,0,2.37-.78,4.36-2.33,1.99-1.55,3.94-2.33,5.85-2.33s3.3,.47,4.42,1.4c1.12,.93,1.68,2.17,1.68,3.7,0,1.45-.72,2.98-2.17,4.57-1.44,1.6-4,3.39-7.68,5.38-3.67,1.99-6,3.33-6.99,4.04-.99,.7-1.84,1.56-2.54,2.58-.21,0-.31-.12-.31-.37,0-.22,.13-.47,.4-.77,.27-.3,.4-.62,.4-.97,0-.21-.34-.62-1.03-1.24-.69-.62-1.59-.93-2.72-.93-2.08,0-3.73,1.08-4.94,3.23l-.31,.37c-.25,0-.37-.13-.37-.38,0-.67,.95-1.97,2.84-3.92,1.89-1.94,4.15-2.91,6.76-2.91,1.95,0,3.66,.62,5.11,1.86l.5,.31,.87-.49c2.77-1.44,4.55-2.75,5.34-3.94,.79-1.19,1.18-2.44,1.18-3.75,0-1.43-.43-2.57-1.28-3.41-.85-.84-1.96-1.26-3.33-1.26-1,0-2.5,.78-4.52,2.33s-3.87,2.33-5.57,2.33c-1.33,0-2.47-.53-3.43-1.59-.95-1.06-1.43-2.31-1.43-3.76,0-2.07,.91-4.14,2.72-6.22,1.81-2.07,5.07-4.34,9.78-6.8,2.31-1.26,3.92-2.59,4.83-3.98l.19-.25,.25,.5c0,.3-.36,.8-1.09,1.52-.72,.72-1.09,1.23-1.09,1.52,1.38,1.16,2.51,1.74,3.38,1.74,1.09,0,2.23-.41,3.45-1.24l.25,.37c0,.21-.97,1.18-2.9,2.92-1.93,1.74-3.44,2.61-4.52,2.61-1,0-2.79-1.14-5.37-3.42Z"/>
  <path class="cls-3" d="M221.73,41.88c.86-.96,2.56-2.4,5.09-4.34,2.53-1.94,4.1-3.8,4.72-5.59l.47-.56,.27,.43c0,.3-.35,1.06-1.06,2.3,0,.58,.9,1.7,2.7,3.36,1.8,1.66,3.03,3.33,3.69,5.01,.66,1.68,.99,3.35,.99,5.01,0,2.99-.92,5.78-2.76,8.37-1.84,2.59-5.12,5.05-9.84,7.37-2.11,1.08-4.02,2.72-5.71,4.91l-.31-.19,1.24-2.17c0-.75-.74-1.62-2.22-2.64-1.48-1.01-2.64-1.52-3.47-1.52-.58,0-1.4,.29-2.44,.87l-.25-.25,.69-.56c2.31-1.53,3.47-3.34,3.47-5.41V30.17c0-5.06,1.33-9.12,4-12.19,2.67-3.07,5.83-4.6,9.47-4.6,1.82,0,3.35,.49,4.6,1.46,1.24,.97,1.86,2.16,1.86,3.57,0,3.06-1.47,4.6-4.41,4.6-.99,0-1.82-.31-2.48-.92-.66-.62-.99-1.44-.99-2.46,0-1.93,1.02-3.18,3.05-3.76l.37-.18c-1.15-1.03-2.08-1.55-2.78-1.55-2.47,0-4.41,1.04-5.83,3.11s-2.13,5.1-2.13,9.09v15.56Zm0,1.49v11.84c0,1.95,.61,3.47,1.83,4.55,1.22,1.08,2.35,1.62,3.38,1.62,1.2,0,2.66-.83,4.38-2.48,1.72-1.66,2.58-4.18,2.58-7.58,0-2.69-.34-4.69-1.03-5.99-.69-1.3-1.43-2.33-2.22-3.07-.79-.75-1.27-1.2-1.44-1.37-1.38-1.37-2.23-2.05-2.57-2.05-.2,0-.9,.47-2.08,1.41-1.19,.94-2.13,1.98-2.82,3.12Z"/>
  <path class="cls-3" d="M257.5,57.9c-1.24,1.78-3.36,3.74-6.36,5.88-2.43,1.73-4.24,3.51-5.44,5.36l-.31,.43c-.21,0-.31-.12-.31-.37,0-.33,.44-.99,1.33-1.99,.89-1,1.33-1.72,1.33-2.17l-.62-.93c-2.61-2.65-3.91-6.15-3.91-10.49,0-5.79,3.26-11.33,9.79-16.62,2-1.59,3.97-3.58,5.92-5.99l.25,.25c0,.29-.81,1.42-2.42,3.42,3.97,3.06,6.64,4.62,8.01,4.66,.5,.05,.75,.19,.75,.43-2.24,1.2-3.35,2.19-3.35,2.97v13.69c0,1.61,.5,2.92,1.49,3.93,.99,1.01,1.84,1.52,2.55,1.52,.41,0,1.26-.46,2.55-1.37,.21,0,.31,.12,.31,.37s-.92,.94-2.76,2.08c-1.84,1.14-4.03,3.09-6.55,5.87l-.12-.25c0-.33,.68-1.35,2.05-3.04,0-.21-.31-.58-.95-1.12-2.14-1.9-3.21-4.08-3.21-6.52Zm-.06-1.3v-14.41c0-.58-.64-1.33-1.93-2.27-1.29-.93-2.15-1.4-2.6-1.4-.5,0-1.36,1.21-2.58,3.63-1.22,2.42-1.83,5.37-1.83,8.85,0,2.82,.49,5.08,1.48,6.8,.99,1.72,2.14,2.58,3.45,2.58s2.69-1.26,4.01-3.79Z"/>
  <path class="cls-3" d="M280.66,35.05c-.41-.58-1.19-1.53-2.33-2.86-1.14-1.32-2.01-2.6-2.61-3.82-.6-1.22-.9-2.87-.9-4.94s.58-3.92,1.74-5.56c1.16-1.63,1.95-2.45,2.35-2.45,.25,0,.37,.15,.37,.43,0,.21-.15,.45-.44,.74-.95,.91-1.43,2.27-1.43,4.09,0,.99,.3,2.05,.9,3.16,.6,1.12,2.5,3.16,5.71,6.13,3.2,2.97,5.34,5.68,6.42,8.12,1.08,2.44,1.62,4.85,1.62,7.25,0,6.9-3.46,12.56-10.39,16.98-2.18,1.39-3.59,2.97-4.2,4.74l-.37,.57c-.37,0-.56-.12-.56-.37,0-.21,.31-.96,.93-2.24l-.68-.5c-4.47-3.02-6.71-7.35-6.71-12.98,0-3.44,.97-6.61,2.92-9.53,1.95-2.92,4.49-5.25,7.64-6.99Zm.37,.43c-4.1,2.51-6.15,7.1-6.15,13.78,0,3.42,.73,6.09,2.2,8,1.47,1.92,3.14,2.87,5,2.87,1.28,0,2.35-.98,3.2-2.94,.85-1.96,1.27-4.27,1.27-6.95,0-2.06-.28-4.17-.83-6.33-.55-2.16-1.43-4.05-2.64-5.65-1.21-1.61-1.89-2.53-2.06-2.78Z"/>
</svg>