<?xml version="1.0" encoding="UTF-8"?>
<svg id="Layer_2" data-name="Layer 2" xmlns="http://www.w3.org/2000/svg" viewBox="0 0 52.33 72.41">
  <defs>
    <style>
      .cls-1 {
        fill: #040404;
        stroke: red;
        stroke-miterlimit: 10;
      }

      .cls-2 {
        fill: #fff;
      }
    </style>
  </defs>
  <g id="Layer_1-2" data-name="Layer 1">
    <g>
      <path class="cls-2" d="M1.77,1.54C3.85-.4,7.39-.82,10.13,2.12c.35.37.83.96,2.01,2.7.77,1.14,1.28,1.74,1.56,2.05l23.88,25.67c2.09-.76,4.45-.22,6.12,1.57s2.03,4.19,1.12,6.22l2.01,2.16c3.58,3.85,5.43,8.28,5.49,13.17.05,5.01-1.93,9.53-5.75,13.08-2.29,2.13-5.04,3.34-8.17,3.61-4.5.38-7.17-1.4-8.62-2.96-1.68-1.81-2.55-3.96-2.49-6.23.07-2.33,1.05-4.42,2.83-6.08,1.61-1.5,3.61-2.29,5.76-2.28.74,0,1.45.1,2.13.28l-3.9-4.19c-2.38,1.95-5.69,1.73-7.84-.59s-2.13-5.63-.02-7.86l-7.83-8.42c-1.36-1.47-2.14-1.83-2.34-1.91h-.11s-.6-.04-.6-.04l-2.69-.4-1.2-1.29c-.56-.6-2.98-3.59.2-7.38.01-.26.01-.63,0-1.12-.02-.69-.07-1.15-.11-1.44l-7.42-7.98-1.67-1.71C-2.22,5.72,1.06,2.19,1.77,1.54Z"/>
      <path class="cls-1" d="M32.71,66.67c-.97-1.04-1.45-2.19-1.42-3.41.04-1.24.56-2.32,1.55-3.25.86-.8,1.88-1.21,3.02-1.21,1.17,0,2.18.45,3,1.33.89.96,2.01,2.8.75,5.21.89-.32,1.82-.94,2.77-1.82,1.52-1.41,2.19-2.98,2.05-4.8-.14-1.89-1.18-3.88-3.09-5.94l-7.01-7.53-2.64,2.45c-.76.71-1.76.66-2.49-.12s-.7-1.78.06-2.49l2.64-2.45-10.54-11.34c-2.04-2.2-3.84-3.27-5.34-3.19h-.2s-1.15-.18-1.15-.18l-.24-.26c-.92-.99.35-2.17.96-2.74,0,0,.39-.5.31-3.17-.1-2.73-.52-3.32-.61-3.41L7.06,9.73l-1.64-1.67c-.56-.6-2.22-2.39-.92-3.59.21-.2,1.33-1.1,2.7.38.19.21.56.65,1.62,2.22.74,1.09,1.39,1.94,1.95,2.53l26.29,28.27,1.22-1.14c.76-.71,1.76-.66,2.49.12s.7,1.78-.06,2.49l-1.22,1.14,4.42,4.75c2.89,3.1,4.37,6.64,4.42,10.5.04,3.91-1.46,7.3-4.47,10.1-1.61,1.5-3.55,2.36-5.78,2.55-2.33.2-4.13-.37-5.36-1.69Z"/>
    </g>
  </g>
</svg>